#!OML:ASF H:\Terrain\Patient Classification 1\Walking\steve\steve.ASF
:FULLY-SPECIFIED
:DEGREES
94
root 8.40847 15.8247 -17.0582 5.56488 -8.00085 2.51657
lowerback 1.65065 3.34037 -3.59944
upperback -2.3592 4.2894 -1.67891
thorax -3.49106 2.20526 0.0752094
lowerneck -10.9238 -1.1549 -2.25993
upperneck 14.1263 -2.0063 5.23099
head 6.15607 -0.682592 1.8634
rclavicle 4.29748e-014 -1.31198e-014
rhumerus -37.1248 0.404385 -87.283
rradius 53.5501
rwrist -5.0905
rhand -23.3406 -46.2402
rfingers 7.12502
rthumb 3.11413 -76.1972
lclavicle 4.29748e-014 -1.31198e-014
lhumerus -48.1317 29.0644 61.8053
lradius 10.498
lwrist -26.7041
lhand -25.8675 -17.7525
lfingers 7.12502
lthumb 0.673688 12.2262
rfemur -20.2316 3.17045 18.4235
rtibia 71.3003
rfoot 0.0643654 -0.204785
rtoes -2.45037
lfemur -27.2544 0.0592603 -26.3851
ltibia 33.5608
lfoot -13.3864 1.18873
ltoes -3.12403
95
root 8.42459 15.8572 -16.8256 5.66597 -7.74099 2.28224
lowerback 1.65926 3.07236 -3.24538
upperback -2.30578 3.94867 -1.55345
thorax -3.41352 2.02744 0.0282449
lowerneck -11.3064 -1.06635 -2.05004
upperneck 14.3868 -1.88697 4.96074
head 6.29561 -0.626684 1.75363
rclavicle -2.39349e-014 4.37326e-015
rhumerus -37.7136 0.000826829 -87.41
rradius 51.6481
rwrist -5.32593
rhand -23.7456 -42.0609
rfingers 7.12502
rthumb 2.72302 -72.0232
lclavicle -2.39349e-014 4.37326e-015
lhumerus -45.8744 27.9577 64.6216
lradius 11.1766
lwrist -24.6511
lhand -26.3358 -17.783
lfingers 7.12502
lthumb 0.221443 12.1966
rfemur -22.2135 3.00812 18.9524
rtibia 71.4387
rfoot -2.53634 0.173463
rtoes -2.35902
lfemur -26.1996 -0.0693697 -26.2907
ltibia 33.1701
lfoot -14.3815 0.461275
ltoes 2.14967
96
root 8.43695 15.8855 -16.5904 5.73655 -7.54025 2.16826
lowerback 1.55943 2.8578 -3.01529
upperback -2.17888 3.67898 -1.50943
thorax -3.20606 1.88557 -0.029529
lowerneck -11.3525 -0.889053 -2.01022
upperneck 14.4166 -1.65818 4.99006
head 6.30435 -0.510618 1.77668
rclavicle -2.07109e-014 1.8487e-014
rhumerus -38.5843 -0.351977 -87.5425
rradius 50.275
rwrist -5.76518
rhand -24.5098 -37.7772
rfingers 7.12502
rthumb 1.98504 -67.7477
lclavicle -2.07109e-014 1.8487e-014
lhumerus -43.8173 27.8161 66.3587
lradius 11.7078
lwrist -24.0236
lhand -26.6957 -17.8077
lfingers 7.12502
lthumb -0.126156 12.172
rfemur -24.0616 2.89242 19.3768
rtibia 71.3639
rfoot -5.43118 0.733515
rtoes -3.2405
lfemur -25.0959 -0.223207 -26.3179
ltibia 32.7028
lfoot -15.4755 -0.0585262
ltoes 4.93376
97
root 8.44646 15.9157 -16.3534 5.63443 -7.24391 2.24866
lowerback 1.68539 2.73025 -3.02672
upperback -2.15002 3.50579 -1.43974
thorax -3.24813 1.80045 0.0507887
lowerneck -11.1458 -0.866842 -2.14411
upperneck 14.4746 -1.602 4.95259
head 6.28524 -0.495941 1.79222
rclavicle -3.10353e-014 -1.2921e-014
rhumerus -40.0917 -0.787868 -87.348
rradius 49.4981
rwrist -5.81288
rhand -23.8584 -38.1338
rfingers 7.12502
rthumb 2.61409 -68.0975
lclavicle -3.10353e-014 -1.2921e-014
lhumerus -41.6048 26.7966 68.5767
lradius 11.9869
lwrist -23.0966
lhand -26.7397 -17.7183
lfingers 7.12502
lthumb -0.168637 12.2614
rfemur -25.7177 2.65125 19.5802
rtibia 71.1051
rfoot -8.08904 1.33926
rtoes -2.95169
lfemur -23.7692 -0.263916 -26.6135
ltibia 32.1888
lfoot -15.8361 0.0252289
ltoes 1.34481
98
root 8.45819 15.9272 -16.1094 5.3011 -6.94154 2.67777
lowerback 2.03041 2.6128 -3.45591
upperback -2.18345 3.31924 -1.38217
thorax -3.50197 1.7209 0.338125
lowerneck -10.636 -0.857487 -2.28113
upperneck 14.4442 -1.54759 4.81612
head 6.18492 -0.494954 1.77599
rclavicle 4.66523e-015 -9.74045e-015
rhumerus -41.3444 -1.46991 -86.876
rradius 47.7417
rwrist -5.13151
rhand -22.8217 -38.593
rfingers 7.12502
rthumb 3.61529 -68.5421
lclavicle 4.66523e-015 -9.74045e-015
lhumerus -39.1313 24.0015 71.8269
lradius 12.2782
lwrist -20.2205
lhand -26.4999 -16.9456
lfingers 7.12502
lthumb 0.0629649 13.0341
rfemur -27.1542 2.37337 19.432
rtibia 70.6577
rfoot -10.2905 1.82337
rtoes -5.17779
lfemur -22.1593 -0.464779 -27.2528
ltibia 31.7394
lfoot -16.4146 -0.286414
ltoes 3.19016
99
root 8.47125 15.9173 -15.8614 4.97937 -6.69663 3.07188
lowerback 2.18869 2.41503 -3.86272
upperback -2.06682 3.03618 -1.35862
thorax -3.48485 1.58862 0.600056
lowerneck -10.5433 -0.748117 -2.22712
upperneck 14.5265 -1.39335 4.69908
head 6.18781 -0.427012 1.74333
rclavicle 1.27595e-014 3.77691e-015
rhumerus -41.8083 -2.56299 -86.3716
rradius 45.0611
rwrist -3.9957
rhand -23.2725 -37.9601
rfingers 7.12502
rthumb 3.17997 -67.9161
lclavicle 1.27595e-014 3.77691e-015
lhumerus -36.6703 21.5329 74.5957
lradius 12.8023
lwrist -17.2388
lhand -26.5517 -16.3958
lfingers 7.12502
lthumb 0.0129124 13.584
rfemur -28.5246 2.07679 19.3643
rtibia 69.9817
rfoot -12.1801 1.95182
rtoes -11.988
lfemur -20.6547 -0.718957 -27.8192
ltibia 31.3868
lfoot -17.175 -1.45157
ltoes 10.6924
100
root 8.48074 15.9056 -15.6166 4.88321 -6.54292 3.07326
lowerback 2.09148 2.19577 -3.93496
upperback -1.86356 2.75566 -1.24511
thorax -3.21705 1.44628 0.782947
lowerneck -10.7498 -0.567455 -2.0535
upperneck 14.5113 -1.14035 4.4876
head 6.20742 -0.309411 1.66853
rclavicle -4.09807e-014 3.08116e-015
rhumerus -41.9249 -3.73206 -85.8979
rradius 42.4219
rwrist -3.45145
rhand -24.2564 -36.8885
rfingers 7.12502
rthumb 2.22975 -66.8566
lclavicle -4.09807e-014 3.08116e-015
lhumerus -34.5665 19.8919 76.586
lradius 13.8844
lwrist -15.088
lhand -27.0501 -17.3961
lfingers 7.12502
lthumb -0.468429 12.5831
rfemur -30.0092 1.97235 19.7269
rtibia 69.0253
rfoot -14.2334 1.87421
rtoes -18.4899
lfemur -19.4783 -0.642178 -28.0249
ltibia 31.1098
lfoot -17.1511 -1.06798
ltoes 1.06381
101
root 8.49025 15.8963 -15.3755 4.82573 -6.26705 3.20312
lowerback 2.09928 2.01998 -4.13702
upperback -1.73599 2.52003 -1.15665
thorax -3.09235 1.33101 1.00197
lowerneck -10.8018 -0.457741 -1.91252
upperneck 14.3863 -0.98279 4.3145
head 6.17002 -0.239613 1.60258
rclavicle 7.83025e-015 1.93815e-014
rhumerus -42.2559 -4.88928 -85.227
rradius 40.0142
rwrist -2.86842
rhand -24.2051 -36.7414
rfingers 7.12502
rthumb 2.27931 -66.7089
lclavicle 7.83025e-015 1.93815e-014
lhumerus -32.7 17.8772 78.4892
lradius 15.1893
lwrist -13.1024
lhand -26.7743 -18.5579
lfingers 7.12502
lthumb -0.202078 11.4218
rfemur -31.4579 2.00143 19.8847
rtibia 67.8028
rfoot -15.895 2.28433
rtoes -18.5496
lfemur -18.3068 -0.669299 -28.3401
ltibia 30.8922
lfoot -17.6907 -1.02224
ltoes -2.82035
102
root 8.5004 15.8816 -15.1344 4.69058 -5.80646 3.44076
lowerback 2.38121 1.89814 -4.3812
upperback -1.76705 2.33345 -1.1015
thorax -3.28736 1.24744 1.1936
lowerneck -10.6179 -0.472059 -1.82522
upperneck 14.4335 -0.992921 4.14206
head 6.15239 -0.254957 1.53248
rclavicle -1.41789e-014 2.31584e-014
rhumerus -43.07 -5.94508 -84.514
rradius 37.6461
rwrist -3.01704
rhand -25.6542 -35.8964
rfingers 7.12502
rthumb 0.879706 -65.8744
lclavicle -1.41789e-014 2.31584e-014
lhumerus -30.9736 14.3175 80.8716
lradius 16.5057
lwrist -9.84075
lhand -25.304 -17.6171
lfingers 7.12502
lthumb 1.218 12.3592
rfemur -32.7534 1.99981 19.8762
rtibia 66.3351
rfoot -16.5717 2.81131
rtoes -15.6925
lfemur -17.0339 -0.885185 -28.6985
ltibia 30.6293
lfoot -18.2986 -1.86823
ltoes -0.00864381
103
root 8.51155 15.8791 -14.8864 4.60027 -5.37841 3.56141
lowerback 2.54756 1.78681 -4.40375
upperback -1.79314 2.17567 -1.03937
thorax -3.40306 1.17245 1.27304
lowerneck -10.4109 -0.558332 -1.89563
upperneck 14.544 -1.07564 3.966
head 6.15353 -0.314029 1.48168
rclavicle 1.22152e-014 -2.11271e-014
rhumerus -43.7964 -7.16867 -83.6762
rradius 35.0609
rwrist -3.10105
rhand -27.2485 -34.0841
rfingers 7.12502
rthumb -0.660131 -64.0628
lclavicle 1.22152e-014 -2.11271e-014
lhumerus -29.504 10.4256 83.0367
lradius 17.9549
lwrist -6.18365
lhand -24.6047 -16.6827
lfingers 7.12502
lthumb 1.89336 13.2887
rfemur -33.9666 1.87341 19.9646
rtibia 64.5842
rfoot -16.8206 3.09836
rtoes -14.1124
lfemur -15.7013 -0.720377 -28.9887
ltibia 30.1818
lfoot -18.8763 -2.34848
ltoes -1.54797
104
root 8.52176 15.888 -14.6341 4.61998 -4.96419 3.75981
lowerback 2.4546 1.66268 -4.49756
upperback -1.70457 2.01447 -1.04439
thorax -3.25307 1.09048 1.33457
lowerneck -10.201 -0.686219 -2.04876
upperneck 14.3503 -1.22044 3.96588
head 6.06137 -0.396232 1.49384
rclavicle 7.45637e-015 1.35174e-014
rhumerus -44.2408 -9.13408 -82.2416
rradius 32.5054
rwrist -0.560752
rhand -25.5731 -34.3446
rfingers 7.12502
rthumb 0.958032 -64.3222
lclavicle 7.45637e-015 1.35174e-014
lhumerus -28.213 7.73353 84.3633
lradius 19.6967
lwrist -3.73652
lhand -24.8712 -16.8515
lfingers 7.12502
lthumb 1.636 13.1219
rfemur -35.1922 1.58767 19.9661
rtibia 62.5766
rfoot -17.0687 3.05763
rtoes -14.7855
lfemur -14.366 -0.297708 -29.3474
ltibia 29.5181
lfoot -19.347 -2.80981
ltoes -4.32284
